<mxfile host="app.diagrams.net" modified="2023-06-29T08:28:48.585Z" agent="Mozilla/5.0 (Windows NT 10.0; Win64; x64) AppleWebKit/537.36 (KHTML, like Gecko) Chrome/114.0.0.0 Safari/537.36 Edg/114.0.1823.58" etag="tfsbMpnBZN2FrZuFCr0C" version="21.5.1" type="device">
  <diagram name="Страница 1" id="iihCn8MFXmnDJwdY1XqD">
    <mxGraphModel dx="918" dy="1138" grid="1" gridSize="10" guides="1" tooltips="1" connect="1" arrows="1" fold="1" page="1" pageScale="1" pageWidth="827" pageHeight="1169" math="0" shadow="0">
      <root>
        <mxCell id="0" />
        <mxCell id="1" parent="0" />
        <mxCell id="fq8BdIwor6VXL135d-me-18" style="edgeStyle=orthogonalEdgeStyle;rounded=0;orthogonalLoop=1;jettySize=auto;html=1;entryX=-0.017;entryY=0.197;entryDx=0;entryDy=0;entryPerimeter=0;exitX=1;exitY=0.25;exitDx=0;exitDy=0;" edge="1" parent="1" source="ZYadZU73RNwVdKDpg35--1" target="ZYadZU73RNwVdKDpg35--16">
          <mxGeometry relative="1" as="geometry">
            <Array as="points">
              <mxPoint x="610" y="223" />
              <mxPoint x="610" y="286" />
            </Array>
          </mxGeometry>
        </mxCell>
        <mxCell id="ZYadZU73RNwVdKDpg35--1" value="Компонента анализа" style="html=1;dropTarget=0;whiteSpace=wrap;" parent="1" vertex="1">
          <mxGeometry x="350" y="200" width="180" height="90" as="geometry" />
        </mxCell>
        <mxCell id="ZYadZU73RNwVdKDpg35--2" value="" style="shape=module;jettyWidth=8;jettyHeight=4;" parent="ZYadZU73RNwVdKDpg35--1" vertex="1">
          <mxGeometry x="1" width="20" height="20" relative="1" as="geometry">
            <mxPoint x="-27" y="7" as="offset" />
          </mxGeometry>
        </mxCell>
        <mxCell id="fq8BdIwor6VXL135d-me-10" style="edgeStyle=orthogonalEdgeStyle;rounded=0;orthogonalLoop=1;jettySize=auto;html=1;entryX=1;entryY=0.5;entryDx=0;entryDy=0;" edge="1" parent="1" source="ZYadZU73RNwVdKDpg35--3" target="ZYadZU73RNwVdKDpg35--14">
          <mxGeometry relative="1" as="geometry" />
        </mxCell>
        <mxCell id="fq8BdIwor6VXL135d-me-11" style="edgeStyle=orthogonalEdgeStyle;rounded=0;orthogonalLoop=1;jettySize=auto;html=1;exitX=1;exitY=0.5;exitDx=0;exitDy=0;entryX=0;entryY=0.7;entryDx=0;entryDy=0;" edge="1" parent="1" source="ZYadZU73RNwVdKDpg35--3" target="ZYadZU73RNwVdKDpg35--16">
          <mxGeometry relative="1" as="geometry" />
        </mxCell>
        <mxCell id="fq8BdIwor6VXL135d-me-14" style="edgeStyle=orthogonalEdgeStyle;rounded=0;orthogonalLoop=1;jettySize=auto;html=1;entryX=0.75;entryY=0;entryDx=0;entryDy=0;exitX=0.75;exitY=1;exitDx=0;exitDy=0;" edge="1" parent="1" source="ZYadZU73RNwVdKDpg35--3" target="ZYadZU73RNwVdKDpg35--5">
          <mxGeometry relative="1" as="geometry" />
        </mxCell>
        <mxCell id="ZYadZU73RNwVdKDpg35--3" value="Компонента сбора данных" style="html=1;dropTarget=0;whiteSpace=wrap;" parent="1" vertex="1">
          <mxGeometry x="350" y="340" width="180" height="90" as="geometry" />
        </mxCell>
        <mxCell id="ZYadZU73RNwVdKDpg35--4" value="" style="shape=module;jettyWidth=8;jettyHeight=4;" parent="ZYadZU73RNwVdKDpg35--3" vertex="1">
          <mxGeometry x="1" width="20" height="20" relative="1" as="geometry">
            <mxPoint x="-27" y="7" as="offset" />
          </mxGeometry>
        </mxCell>
        <mxCell id="fq8BdIwor6VXL135d-me-5" style="edgeStyle=orthogonalEdgeStyle;rounded=0;orthogonalLoop=1;jettySize=auto;html=1;" edge="1" parent="1" source="ZYadZU73RNwVdKDpg35--5">
          <mxGeometry relative="1" as="geometry">
            <mxPoint x="610" y="525" as="targetPoint" />
          </mxGeometry>
        </mxCell>
        <mxCell id="fq8BdIwor6VXL135d-me-15" style="edgeStyle=orthogonalEdgeStyle;rounded=0;orthogonalLoop=1;jettySize=auto;html=1;entryX=0.25;entryY=1;entryDx=0;entryDy=0;exitX=0.25;exitY=0;exitDx=0;exitDy=0;" edge="1" parent="1" source="ZYadZU73RNwVdKDpg35--5" target="ZYadZU73RNwVdKDpg35--3">
          <mxGeometry relative="1" as="geometry" />
        </mxCell>
        <mxCell id="fq8BdIwor6VXL135d-me-17" style="edgeStyle=orthogonalEdgeStyle;rounded=0;orthogonalLoop=1;jettySize=auto;html=1;exitX=0.75;exitY=1;exitDx=0;exitDy=0;entryX=0.683;entryY=0.002;entryDx=0;entryDy=0;entryPerimeter=0;" edge="1" parent="1" source="ZYadZU73RNwVdKDpg35--5" target="ZYadZU73RNwVdKDpg35--9">
          <mxGeometry relative="1" as="geometry">
            <mxPoint x="508" y="570" as="sourcePoint" />
            <mxPoint x="508" y="640" as="targetPoint" />
            <Array as="points">
              <mxPoint x="484" y="570" />
            </Array>
          </mxGeometry>
        </mxCell>
        <mxCell id="ZYadZU73RNwVdKDpg35--5" value="Компонента&amp;nbsp;представления&lt;br/&gt;данных" style="html=1;dropTarget=0;whiteSpace=wrap;" parent="1" vertex="1">
          <mxGeometry x="350" y="480" width="180" height="90" as="geometry" />
        </mxCell>
        <mxCell id="ZYadZU73RNwVdKDpg35--6" value="" style="shape=module;jettyWidth=8;jettyHeight=4;" parent="ZYadZU73RNwVdKDpg35--5" vertex="1">
          <mxGeometry x="1" width="20" height="20" relative="1" as="geometry">
            <mxPoint x="-27" y="7" as="offset" />
          </mxGeometry>
        </mxCell>
        <mxCell id="fq8BdIwor6VXL135d-me-16" style="edgeStyle=orthogonalEdgeStyle;rounded=0;orthogonalLoop=1;jettySize=auto;html=1;entryX=0.25;entryY=1;entryDx=0;entryDy=0;" edge="1" parent="1" target="ZYadZU73RNwVdKDpg35--5">
          <mxGeometry relative="1" as="geometry">
            <mxPoint x="395" y="640" as="sourcePoint" />
          </mxGeometry>
        </mxCell>
        <mxCell id="ZYadZU73RNwVdKDpg35--9" value="Графический интерфейс пользователя" style="shape=umlFrame;whiteSpace=wrap;html=1;pointerEvents=0;recursiveResize=0;container=1;collapsible=0;width=170;" parent="1" vertex="1">
          <mxGeometry x="320" y="640" width="240" height="160" as="geometry" />
        </mxCell>
        <mxCell id="ZYadZU73RNwVdKDpg35--10" value="Список парковок" style="text;html=1;" parent="ZYadZU73RNwVdKDpg35--9" vertex="1">
          <mxGeometry width="100" height="20" relative="1" as="geometry">
            <mxPoint x="20" y="40" as="offset" />
          </mxGeometry>
        </mxCell>
        <mxCell id="ZYadZU73RNwVdKDpg35--11" value="Карта камер" style="shape=note2;boundedLbl=1;whiteSpace=wrap;html=1;size=25;verticalAlign=top;align=left;spacingLeft=10;" parent="ZYadZU73RNwVdKDpg35--9" vertex="1">
          <mxGeometry width="150" height="60" relative="1" as="geometry">
            <mxPoint x="50" y="80" as="offset" />
          </mxGeometry>
        </mxCell>
        <mxCell id="ZYadZU73RNwVdKDpg35--12" value="Компонента&amp;nbsp;формирования&lt;br/&gt;отчетов" style="html=1;dropTarget=0;whiteSpace=wrap;" parent="1" vertex="1">
          <mxGeometry x="610" y="480" width="180" height="90" as="geometry" />
        </mxCell>
        <mxCell id="ZYadZU73RNwVdKDpg35--13" value="" style="shape=module;jettyWidth=8;jettyHeight=4;" parent="ZYadZU73RNwVdKDpg35--12" vertex="1">
          <mxGeometry x="1" width="20" height="20" relative="1" as="geometry">
            <mxPoint x="-27" y="7" as="offset" />
          </mxGeometry>
        </mxCell>
        <mxCell id="fq8BdIwor6VXL135d-me-8" style="edgeStyle=orthogonalEdgeStyle;rounded=0;orthogonalLoop=1;jettySize=auto;html=1;entryX=0;entryY=0.5;entryDx=0;entryDy=0;exitX=0.707;exitY=0.004;exitDx=0;exitDy=0;exitPerimeter=0;startArrow=classic;startFill=1;endArrow=none;endFill=0;" edge="1" parent="1" source="ZYadZU73RNwVdKDpg35--14" target="ZYadZU73RNwVdKDpg35--1">
          <mxGeometry relative="1" as="geometry" />
        </mxCell>
        <mxCell id="fq8BdIwor6VXL135d-me-9" style="edgeStyle=orthogonalEdgeStyle;rounded=0;orthogonalLoop=1;jettySize=auto;html=1;entryX=0;entryY=0.5;entryDx=0;entryDy=0;exitX=0.707;exitY=1.004;exitDx=0;exitDy=0;exitPerimeter=0;startArrow=classic;startFill=1;endArrow=none;endFill=0;" edge="1" parent="1" source="ZYadZU73RNwVdKDpg35--14" target="ZYadZU73RNwVdKDpg35--5">
          <mxGeometry relative="1" as="geometry" />
        </mxCell>
        <mxCell id="ZYadZU73RNwVdKDpg35--14" value="Компонента&amp;nbsp;сбора&lt;br/&gt;параметров работы" style="html=1;dropTarget=0;whiteSpace=wrap;" parent="1" vertex="1">
          <mxGeometry x="110" y="340" width="180" height="90" as="geometry" />
        </mxCell>
        <mxCell id="ZYadZU73RNwVdKDpg35--15" value="" style="shape=module;jettyWidth=8;jettyHeight=4;" parent="ZYadZU73RNwVdKDpg35--14" vertex="1">
          <mxGeometry x="1" width="20" height="20" relative="1" as="geometry">
            <mxPoint x="-27" y="7" as="offset" />
          </mxGeometry>
        </mxCell>
        <mxCell id="fq8BdIwor6VXL135d-me-1" value="Система мониторинга парковочных мест" style="swimlane;whiteSpace=wrap;html=1;" vertex="1" parent="1">
          <mxGeometry x="80" y="120" width="730" height="720" as="geometry" />
        </mxCell>
        <mxCell id="ZYadZU73RNwVdKDpg35--16" value="БД парковок и статистики доступности" style="shape=datastore;whiteSpace=wrap;html=1;" parent="fq8BdIwor6VXL135d-me-1" vertex="1">
          <mxGeometry x="557.5" y="140" width="125" height="130" as="geometry" />
        </mxCell>
        <mxCell id="fq8BdIwor6VXL135d-me-4" value="" style="edgeStyle=orthogonalEdgeStyle;rounded=0;orthogonalLoop=1;jettySize=auto;html=1;startArrow=classic;startFill=1;endArrow=none;endFill=0;" edge="1" parent="fq8BdIwor6VXL135d-me-1">
          <mxGeometry relative="1" as="geometry">
            <mxPoint x="650" y="270" as="sourcePoint" />
            <mxPoint x="650" y="360" as="targetPoint" />
            <Array as="points">
              <mxPoint x="650" y="310" />
              <mxPoint x="650" y="310" />
            </Array>
          </mxGeometry>
        </mxCell>
        <mxCell id="fq8BdIwor6VXL135d-me-3" value="" style="edgeStyle=orthogonalEdgeStyle;rounded=0;orthogonalLoop=1;jettySize=auto;html=1;" edge="1" parent="1" source="ZYadZU73RNwVdKDpg35--16" target="ZYadZU73RNwVdKDpg35--12">
          <mxGeometry relative="1" as="geometry">
            <Array as="points">
              <mxPoint x="670" y="430" />
              <mxPoint x="670" y="430" />
            </Array>
          </mxGeometry>
        </mxCell>
        <mxCell id="fq8BdIwor6VXL135d-me-12" style="edgeStyle=orthogonalEdgeStyle;rounded=0;orthogonalLoop=1;jettySize=auto;html=1;" edge="1" parent="1" source="ZYadZU73RNwVdKDpg35--16">
          <mxGeometry relative="1" as="geometry">
            <mxPoint x="530" y="270" as="targetPoint" />
            <Array as="points">
              <mxPoint x="584" y="325" />
              <mxPoint x="584" y="270" />
              <mxPoint x="530" y="270" />
            </Array>
          </mxGeometry>
        </mxCell>
      </root>
    </mxGraphModel>
  </diagram>
</mxfile>
